<svg viewBox="0 0 800 500" xmlns="http://www.w3.org/2000/svg">
  <defs>
    <linearGradient id="wall" x1="0" y1="0" x2="0" y2="1">
      <stop offset="0%" stop-color="#FAFAFA"/>
      <stop offset="100%" stop-color="#EEEEEE"/>
    </linearGradient>
  </defs>
  <rect width="800" height="500" fill="#E8EAF6"/>
  <!-- Building facade -->
  <rect x="100" y="80" width="600" height="420" fill="url(#wall)" rx="4"/>
  <!-- Shop signage area -->
  <rect x="100" y="80" width="600" height="80" fill="#1A237E" rx="4"/>
  <text x="400" y="130" text-anchor="middle" font-family="Arial,sans-serif" font-size="26" font-weight="bold" fill="white">PANKTI ENTERPRISES</text>
  <!-- Shutter box top -->
  <rect x="130" y="160" width="540" height="22" fill="#424242" rx="3"/>
  <!-- Rolling shutter slats -->
  <rect x="130" y="182" width="540" height="14" fill="#757575"/>
  <rect x="130" y="196" width="540" height="14" fill="#9E9E9E"/>
  <rect x="130" y="210" width="540" height="14" fill="#757575"/>
  <rect x="130" y="224" width="540" height="14" fill="#9E9E9E"/>
  <rect x="130" y="238" width="540" height="14" fill="#757575"/>
  <rect x="130" y="252" width="540" height="14" fill="#9E9E9E"/>
  <rect x="130" y="266" width="540" height="14" fill="#757575"/>
  <rect x="130" y="280" width="540" height="14" fill="#9E9E9E"/>
  <rect x="130" y="294" width="540" height="14" fill="#757575"/>
  <rect x="130" y="308" width="540" height="14" fill="#9E9E9E"/>
  <rect x="130" y="322" width="540" height="14" fill="#757575"/>
  <rect x="130" y="336" width="540" height="14" fill="#9E9E9E"/>
  <rect x="130" y="350" width="540" height="14" fill="#757575"/>
  <rect x="130" y="364" width="540" height="14" fill="#9E9E9E"/>
  <!-- Shutter guide rails -->
  <rect x="125" y="160" width="14" height="224" fill="#616161"/>
  <rect x="661" y="160" width="14" height="224" fill="#616161"/>
  <!-- Bottom lock bar -->
  <rect x="130" y="378" width="540" height="10" fill="#424242" rx="2"/>
  <!-- Lock -->
  <rect x="375" y="370" width="50" height="20" fill="#F57F17" rx="3"/>
  <circle cx="400" cy="380" r="6" fill="#E65100"/>
  <!-- Handle -->
  <line x1="350" y1="383" x2="450" y2="383" stroke="#E65100" stroke-width="5" stroke-linecap="round"/>
  <!-- Floor -->
  <rect x="0" y="400" width="800" height="100" fill="#BDBDBD"/>
  <!-- Label -->
  <rect x="0" y="440" width="800" height="60" fill="#C62828" opacity="0.92"/>
  <text x="400" y="472" text-anchor="middle" font-family="Arial,sans-serif" font-size="22" font-weight="bold" fill="white">ROLLING SHUTTERS</text>
  <text x="400" y="492" text-anchor="middle" font-family="Arial,sans-serif" font-size="13" fill="#FFCDD2">Iron Slats · Manual / Spring Balanced · Shops, Garages &amp; Factories</text>
</svg>